
        <svg xmlns="http://www.w3.org/2000/svg" xmlns:xlink="http://www.w3.org/1999/xlink" version="1.1" width="3187.5" height="1087.4117121976965" viewBox="0 0 3187.5 1087.4117121976965">
			
			<g transform="scale(9.375) translate(10, 10)">
				<defs id="SvgjsDefs16329"><linearGradient id="SvgjsLinearGradient16334"><stop id="SvgjsStop16335" stop-color="#ef4136" offset="0"/><stop id="SvgjsStop16336" stop-color="#fbb040" offset="1"/></linearGradient><linearGradient id="SvgjsLinearGradient16337"><stop id="SvgjsStop16338" stop-color="#ef4136" offset="0"/><stop id="SvgjsStop16339" stop-color="#fbb040" offset="1"/></linearGradient></defs><g id="SvgjsG16330" featureKey="symbolFeature-0" transform="matrix(1.1764705882352942,0,0,1.1764705882352942,-2.9411764705882355,-4.945882348453297)" fill="#000"><g xmlns="http://www.w3.org/2000/svg"><g><polygon points="73.593,69.538 87.151,61.709 73.593,53.881 60.034,61.71   "/><polygon points="73.246,70.14 59.687,62.311 59.687,77.968 73.246,85.796   "/><polygon points="73.939,70.14 73.939,85.796 87.5,77.968 87.5,62.311   "/></g><g><polygon points="45,69.538 58.559,61.709 45,53.881 31.44,61.71   "/><polygon points="44.653,70.14 31.094,62.311 31.094,77.968 44.653,85.796   "/><polygon points="45.347,70.14 45.347,85.796 58.906,77.968 58.906,62.311   "/></g><g><polygon points="45,19.861 58.559,12.033 45,4.204 31.44,12.033   "/><polygon points="44.653,20.462 31.094,12.634 31.094,28.291 44.653,36.12   "/><polygon points="45.347,20.462 45.347,36.12 58.906,28.291 58.906,12.634   "/></g><g><polygon points="16.407,69.538 29.966,61.709 16.407,53.881 2.847,61.71   "/><polygon points="16.06,70.14 2.5,62.311 2.5,77.968 16.06,85.796   "/><polygon points="16.753,70.14 16.753,85.796 30.313,77.968 30.313,62.311   "/></g><g><polygon points="30.717,44.7 44.276,36.871 30.717,29.042 17.157,36.872   "/><polygon points="30.37,45.301 16.81,37.473 16.81,53.129 30.37,60.958   "/><polygon points="31.063,45.301 31.063,60.958 44.623,53.129 44.623,37.473   "/></g><g><polygon points="59.282,44.7 72.841,36.871 59.282,29.042 45.723,36.872   "/><polygon points="58.936,45.301 45.375,37.473 45.375,53.129 58.936,60.958   "/><polygon points="59.629,45.301 59.629,60.958 73.188,53.129 73.188,37.473   "/></g></g></g><g id="SvgjsG16331" featureKey="nameFeature-0" transform="matrix(0.5882925333454937,0,0,0.5882925333454937,119.34499426213704,33.08296445361577)" fill="#000"><path d="M8.3008 33.0859 c-1.9531 -1.9531 -2.9297 -4.31 -2.9297 -7.0703 s0.97656 -5.1172 2.9297 -7.0703 c1.9531 -1.9662 4.31 -2.9492 7.0703 -2.9492 c1.6927 0 3.2748 0.40365 4.7461 1.2109 l0 -4.6484 c-1.5365 -0.53385 -3.1186 -0.80078 -4.7461 -0.80078 c-3.9322 0 -7.2916 1.3932 -10.078 4.1797 s-4.1797 6.1459 -4.1797 10.078 s1.3932 7.2916 4.1797 10.078 s6.1459 4.1797 10.078 4.1797 c1.6276 0 3.2096 -0.27344 4.7461 -0.82031 l0 -4.6289 c-1.4713 0.79428 -3.0533 1.1914 -4.7461 1.1914 c-2.7604 0 -5.1172 -0.97656 -7.0703 -2.9297 z M29.3359625 18.945 c-1.9531 1.9531 -2.9297 4.31 -2.9297 7.0703 s0.97656 5.1172 2.9297 7.0703 s4.31 2.9297 7.0703 2.9297 s5.1172 -0.97656 7.0703 -2.9297 s2.9297 -4.31 2.9297 -7.0703 s-0.97656 -5.1172 -2.9297 -7.0703 s-4.31 -2.9297 -7.0703 -2.9297 s-5.1172 0.97656 -7.0703 2.9297 z M26.3281625 36.0937 c-2.7865 -2.7865 -4.1797 -6.1459 -4.1797 -10.078 s1.3932 -7.2916 4.1797 -10.078 s6.1459 -4.1797 10.078 -4.1797 s7.2916 1.3932 10.078 4.1797 s4.1797 6.1459 4.1797 10.078 s-1.3932 7.2916 -4.1797 10.078 s-6.1459 4.1797 -10.078 4.1797 s-7.2916 -1.3932 -10.078 -4.1797 z M70.0395625 12.050999999999998 l0 19.98 l-11.934 -19.98 l-4.4336 0 l0 27.949 l4.2383 0 l0 -19.98 l11.953 19.98 l4.4336 0 l0 -27.949 l-4.2578 0 z M78.7109875 12.050999999999998 l0 27.949 l4.2383 0 l0 -11.895 l7.7344 0 l0 -4.2383 l-7.7344 0 l0 -7.5781 l10.02 0 l0 -4.2383 l-14.258 0 z M100.6445375 12.09 l-4.2383 0 l0 27.91 l4.2383 0 l0 -27.91 z M109.2968875 23.984 l0 -7.6953 l6.0742 0 c1.0547 0 1.9596 0.3776 2.7148 1.1328 c0.74219 0.75521 1.1133 1.6667 1.1133 2.7344 c0 1.0547 -0.37109 1.9531 -1.1133 2.6953 c-0.75521 0.75521 -1.6602 1.1328 -2.7148 1.1328 l-6.0742 0 z M118.5346875 27.578 c1.4583 -0.625 2.6367 -1.6015 3.5352 -2.9297 c0.92447 -1.3542 1.3867 -2.8516 1.3867 -4.4922 c0 -2.2396 -0.79428 -4.1471 -2.3828 -5.7227 c-1.5755 -1.5885 -3.4766 -2.3828 -5.7031 -2.3828 l-10.313 0 l0 27.949 l4.2383 0 l0 -11.777 l4.7852 0 l6.1133 11.777 l4.7852 0 z M151.8750625 12.050999999999998 l-9.9609 22.813 l-9.8438 -22.813 l-4.4336 0 l0 27.949 l4.2383 0 l0 -17.637 l7.6367 17.637 l4.7852 0 l7.7734 -17.754 l0 17.754 l4.2383 0 l0 -27.949 l-4.4336 0 z M161.03520625 12.050999999999998 l0 27.949 l14.258 0 l0 -4.2383 l-10.02 0 l0 -7.6563 l7.7344 0 l0 -4.2383 l-7.7344 0 l0 -7.5781 l10.02 0 l0 -4.2383 l-14.258 0 z M182.83205625 35.7812 l3.125 -0.000019073 c2.6822 0 4.9805 -0.95703 6.8945 -2.8711 c1.901 -1.901 2.8516 -4.1928 2.8516 -6.875 c0 -2.6953 -0.95053 -4.9936 -2.8516 -6.8945 c-1.9141 -1.9141 -4.2123 -2.8711 -6.8945 -2.8711 l-3.125 0 l0 19.512 z M178.61325625 39.999980927 l0 -27.949 l7.3438 0 c3.8541 0 7.1484 1.3672 9.8828 4.1016 c2.7213 2.7344 4.082 6.0287 4.082 9.8828 c0 3.8412 -1.3607 7.1289 -4.082 9.8633 c-2.7344 2.7344 -6.0287 4.1016 -9.8828 4.1016 l-7.3438 0 z M217.67575625 23.828 l4.5313 -0.000038146 c1.0417 0 1.9271 -0.37109 2.6563 -1.1133 c0.74219 -0.72916 1.1133 -1.6146 1.1133 -2.6563 s-0.37109 -1.9271 -1.1133 -2.6563 c-0.72916 -0.74219 -1.6146 -1.1133 -2.6563 -1.1133 l-4.5313 0 l0 7.5391 z M217.67575625 35.7617 l6.0742 0.000019073 c1.0547 0 1.9596 -0.3776 2.7148 -1.1328 c0.74219 -0.75521 1.1133 -1.6667 1.1133 -2.7344 c0 -1.0547 -0.37109 -1.9531 -1.1133 -2.6953 c-0.75521 -0.75521 -1.6602 -1.1328 -2.7148 -1.1328 l-6.0742 0 l0 7.6953 z M213.43745625 39.999980927 l0.000019073 -27.949 l8.7695 0 c2.2135 0 4.1016 0.78125 5.6641 2.3438 c1.5625 1.5755 2.3438 3.4635 2.3438 5.6641 c0 1.9662 -0.6315 3.6914 -1.8945 5.1758 c1.0807 0.74219 1.9271 1.6927 2.5391 2.8516 c0.65104 1.1849 0.97656 2.4545 0.97656 3.8086 c0 2.2396 -0.79428 4.1471 -2.3828 5.7227 c-1.5755 1.5885 -3.4766 2.3828 -5.7031 2.3828 l-10.313 0 z M235.21489375 12.050999999999998 l0 27.949 l14.258 0 l0 -4.2383 l-10.02 0 l0 -23.711 l-4.2383 0 z M256.5234625 18.945 c-1.9531 1.9531 -2.9297 4.31 -2.9297 7.0703 s0.97656 5.1172 2.9297 7.0703 s4.31 2.9297 7.0703 2.9297 s5.1172 -0.97656 7.0703 -2.9297 s2.9297 -4.31 2.9297 -7.0703 s-0.97656 -5.1172 -2.9297 -7.0703 s-4.31 -2.9297 -7.0703 -2.9297 s-5.1172 0.97656 -7.0703 2.9297 z M253.5156625 36.0937 c-2.7865 -2.7865 -4.1797 -6.1459 -4.1797 -10.078 s1.3932 -7.2916 4.1797 -10.078 s6.1459 -4.1797 10.078 -4.1797 s7.2916 1.3932 10.078 4.1797 s4.1797 6.1459 4.1797 10.078 s-1.3932 7.2916 -4.1797 10.078 s-6.1459 4.1797 -10.078 4.1797 s-7.2916 -1.3932 -10.078 -4.1797 z M287.0898625 33.0859 c-1.9531 -1.9531 -2.9297 -4.31 -2.9297 -7.0703 s0.97656 -5.1172 2.9297 -7.0703 c1.9531 -1.9662 4.31 -2.9492 7.0703 -2.9492 c1.6927 0 3.2748 0.40365 4.7461 1.2109 l0 -4.6484 c-1.5365 -0.53385 -3.1186 -0.80078 -4.7461 -0.80078 c-3.9322 0 -7.2916 1.3932 -10.078 4.1797 s-4.1797 6.1459 -4.1797 10.078 s1.3932 7.2916 4.1797 10.078 s6.1459 4.1797 10.078 4.1797 c1.6276 0 3.2096 -0.27344 4.7461 -0.82031 l0 -4.6289 c-1.4713 0.79428 -3.0533 1.1914 -4.7461 1.1914 c-2.7604 0 -5.1172 -0.97656 -7.0703 -2.9297 z M316.621125 12.050999999999998 l-9.7656 12.129 l0 -12.129 l-4.2383 0 l0 27.949 l4.2383 0 l0 -9.043 l1.3086 -1.6211 l8.7695 10.664 l5.5078 0 l-11.563 -14.043 l11.172 -13.906 l-5.4297 0 z M331.17191875 40.25391 c-1.849 -0.078125 -3.5547 -0.57291 -5.1172 -1.4844 c-1.7708 -1.0287 -2.9752 -2.4088 -3.6133 -4.1406 l3.9844 -1.4648 c0.32553 0.85938 0.99609 1.556 2.0117 2.0898 c0.89844 0.45572 1.875 0.70963 2.9297 0.76172 c1.6276 0.065098 2.9752 -0.33203 4.043 -1.1914 c0.89844 -0.72916 1.3737 -1.5625 1.4258 -2.5 c0.078125 -1.7838 -1.7904 -3.2096 -5.6055 -4.2773 c-5.9766 -1.6797 -8.8736 -4.5248 -8.6914 -8.5352 c0.11719 -2.8125 1.3216 -4.9154 3.6133 -6.3086 c1.7448 -1.0677 3.8412 -1.543 6.2891 -1.4258 c2.9688 0.13021 5.3516 1.1654 7.1484 3.1055 l-3.1055 2.8906 c-1.0156 -1.0938 -2.4283 -1.6797 -4.2383 -1.7578 c-1.276 -0.05209 -2.3633 0.11066 -3.2617 0.48826 c-1.4063 0.59896 -2.142 1.6667 -2.207 3.2031 c-0.078125 1.7578 1.7904 3.1705 5.6055 4.2383 c3.4375 0.96354 5.8725 2.3828 7.3047 4.2578 c0.98959 1.3021 1.4518 2.7408 1.3867 4.3164 c-0.10416 2.2135 -1.1068 4.0885 -3.0078 5.625 c-1.7708 1.4193 -3.8932 2.1289 -6.3672 2.1289 c-0.18229 0 -0.35807 -0.0065041 -0.52734 -0.019531 z"/></g>
			</g>
		</svg>
	